<?xml version="1.0" encoding="UTF-8"?>
<svg xmlns="http://www.w3.org/2000/svg" xmlns:xlink="http://www.w3.org/1999/xlink" width="px" height="20px" viewBox="0 0 21 20" version="1.1">
<defs>
<filter id="alpha" filterUnits="objectBoundingBox" x="0%" y="0%" width="100%" height="100%">
  <feColorMatrix type="matrix" in="SourceGraphic" values="0 0 0 0 1 0 0 0 0 1 0 0 0 0 1 0 0 0 1 0"/>
</filter>
<mask id="mask0">
  <g filter="url(#alpha)">
<rect x="0" y="0" width="21" height="20" style="fill:rgb(0%,0%,0%);fill-opacity:0.992157;stroke:none;"/>
  </g>
</mask>
<clipPath id="clip1">
  <rect x="0" y="0" width="21" height="20"/>
</clipPath>
<g id="surface5" clip-path="url(#clip1)">
<path style=" stroke:none;fill-rule:evenodd;fill:rgb(78.431373%,66.666667%,43.137255%);fill-opacity:1;" d="M 2.332031 -0.0195312 C 7.765625 -0.0195312 13.199219 -0.0195312 18.632812 -0.0195312 C 19.917969 0.289062 20.703125 1.105469 20.980469 2.429688 C 20.980469 5.84375 20.980469 9.257812 20.980469 12.667969 C 20.757812 13.84375 20.09375 14.628906 18.988281 15.027344 C 18.789062 15.082031 18.589844 15.121094 18.382812 15.136719 C 16.519531 15.148438 14.660156 15.160156 12.796875 15.171875 C 12.179688 16.652344 11.566406 18.132812 10.960938 19.617188 C 10.890625 19.753906 10.804688 19.875 10.695312 19.980469 C 10.578125 19.980469 10.457031 19.980469 10.339844 19.980469 C 10.175781 19.867188 10.0625 19.707031 10 19.507812 C 9.410156 18.058594 8.808594 16.613281 8.203125 15.171875 C 6.316406 15.160156 4.429688 15.148438 2.542969 15.136719 C 1.398438 14.996094 0.597656 14.378906 0.140625 13.289062 C 0.0820312 13.09375 0.03125 12.898438 -0.0195312 12.707031 C -0.0195312 9.269531 -0.0195312 5.832031 -0.0195312 2.394531 C 0.277344 1.089844 1.0625 0.285156 2.332031 -0.0195312 Z M 6.992188 4.40625 C 7.988281 4.4375 8.574219 4.949219 8.757812 5.941406 C 8.773438 7.257812 8.78125 8.574219 8.773438 9.890625 C 8.371094 9.890625 7.96875 9.890625 7.5625 9.890625 C 7.570312 8.621094 7.5625 7.355469 7.546875 6.085938 C 7.441406 5.859375 7.269531 5.714844 7.03125 5.648438 C 6.992188 5.234375 6.980469 4.820312 6.992188 4.40625 Z M 2.542969 4.589844 C 2.960938 4.589844 3.375 4.589844 3.789062 4.589844 C 3.785156 5.257812 3.789062 5.929688 3.808594 6.601562 C 4.183594 6.203125 4.640625 6.050781 5.179688 6.144531 C 5.910156 6.308594 6.351562 6.765625 6.511719 7.515625 C 6.65625 8.164062 6.5625 8.773438 6.230469 9.34375 C 5.59375 10.019531 4.863281 10.160156 4.039062 9.761719 C 3.960938 9.699219 3.882812 9.632812 3.808594 9.5625 C 3.789062 9.65625 3.785156 9.753906 3.789062 9.855469 C 3.375 9.855469 2.960938 9.855469 2.542969 9.855469 C 2.542969 8.097656 2.542969 6.34375 2.542969 4.589844 Z M 16.140625 6.085938 C 16.566406 6.097656 16.917969 6.265625 17.191406 6.601562 C 17.210938 6.464844 17.214844 6.332031 17.210938 6.199219 C 17.613281 6.199219 18.015625 6.199219 18.417969 6.199219 C 18.425781 7.550781 18.417969 8.902344 18.402344 10.257812 C 18.289062 11.164062 17.796875 11.695312 16.925781 11.847656 C 16.640625 11.863281 16.355469 11.871094 16.070312 11.863281 C 16.070312 11.476562 16.070312 11.085938 16.070312 10.695312 C 16.667969 10.8125 17.03125 10.566406 17.15625 9.964844 C 17.179688 9.816406 17.179688 9.671875 17.15625 9.523438 C 16.957031 9.792969 16.6875 9.949219 16.355469 9.980469 C 15.632812 10.078125 15.058594 9.828125 14.628906 9.230469 C 14.460938 8.886719 14.394531 8.519531 14.433594 8.136719 C 14.40625 6.917969 14.976562 6.238281 16.140625 6.085938 Z M 11.40625 6.160156 C 12.433594 6.082031 13.175781 6.507812 13.632812 7.441406 C 13.902344 8.578125 13.515625 9.386719 12.476562 9.871094 C 11.4375 10.199219 10.589844 9.925781 9.929688 9.050781 C 9.441406 7.996094 9.660156 7.136719 10.589844 6.472656 C 10.851562 6.328125 11.125 6.222656 11.40625 6.160156 Z M 11.40625 6.160156 "/>
</g>
<mask id="mask1">
  <g filter="url(#alpha)">
<rect x="0" y="0" width="21" height="20" style="fill:rgb(0%,0%,0%);fill-opacity:0.956863;stroke:none;"/>
  </g>
</mask>
<clipPath id="clip2">
  <rect x="0" y="0" width="21" height="20"/>
</clipPath>
<g id="surface8" clip-path="url(#clip2)">
<path style=" stroke:none;fill-rule:evenodd;fill:rgb(78.431373%,66.666667%,43.137255%);fill-opacity:1;" d="M 11.585938 7.257812 C 12.195312 7.269531 12.5 7.585938 12.492188 8.207031 C 12.367188 8.738281 12.042969 8.964844 11.515625 8.886719 C 10.9375 8.636719 10.777344 8.214844 11.035156 7.625 C 11.171875 7.421875 11.355469 7.300781 11.585938 7.257812 Z M 11.585938 7.257812 "/>
</g>
<mask id="mask2">
  <g filter="url(#alpha)">
<rect x="0" y="0" width="21" height="20" style="fill:rgb(0%,0%,0%);fill-opacity:0.960784;stroke:none;"/>
  </g>
</mask>
<clipPath id="clip3">
  <rect x="0" y="0" width="21" height="20"/>
</clipPath>
<g id="surface11" clip-path="url(#clip3)">
<path style=" stroke:none;fill-rule:evenodd;fill:rgb(78.431373%,66.666667%,43.137255%);fill-opacity:1;" d="M 16.285156 7.292969 C 17.015625 7.261719 17.332031 7.613281 17.226562 8.355469 C 16.96875 8.871094 16.582031 9.011719 16.070312 8.773438 C 15.761719 8.558594 15.648438 8.261719 15.730469 7.878906 C 15.828125 7.59375 16.011719 7.398438 16.285156 7.292969 Z M 16.285156 7.292969 "/>
</g>
<mask id="mask3">
  <g filter="url(#alpha)">
<rect x="0" y="0" width="21" height="20" style="fill:rgb(0%,0%,0%);fill-opacity:0.952941;stroke:none;"/>
  </g>
</mask>
<clipPath id="clip4">
  <rect x="0" y="0" width="21" height="20"/>
</clipPath>
<g id="surface14" clip-path="url(#clip4)">
<path style=" stroke:none;fill-rule:evenodd;fill:rgb(78.431373%,66.666667%,43.137255%);fill-opacity:1;" d="M 4.46875 7.332031 C 4.980469 7.332031 5.265625 7.59375 5.320312 8.117188 C 5.183594 8.773438 4.804688 8.992188 4.183594 8.773438 C 3.800781 8.476562 3.726562 8.101562 3.949219 7.660156 C 4.085938 7.480469 4.257812 7.371094 4.46875 7.332031 Z M 4.46875 7.332031 "/>
</g>
</defs>
<g id="surface1">
<use xlink:href="#surface5" mask="url(#mask0)"/>
<use xlink:href="#surface8" mask="url(#mask1)"/>
<use xlink:href="#surface11" mask="url(#mask2)"/>
<use xlink:href="#surface14" mask="url(#mask3)"/>
</g>
</svg>
