<?xml version="1.0" encoding="UTF-8"?>
<svg xmlns="http://www.w3.org/2000/svg" xmlns:xlink="http://www.w3.org/1999/xlink" width="px" height="20px" viewBox="0 0 20 20" version="1.1">
<g id="surface1">
<path style=" stroke:none;fill-rule:evenodd;fill:rgb(78.431373%,66.666667%,43.137255%);fill-opacity:1;" d="M 9.769531 0 C 4.367188 0 0 4.398438 0 9.84375 C 0 14.195312 2.796875 17.878906 6.679688 19.179688 C 7.167969 19.28125 7.34375 18.96875 7.34375 18.710938 C 7.34375 18.480469 7.328125 17.699219 7.328125 16.882812 C 4.609375 17.46875 4.042969 15.710938 4.042969 15.710938 C 3.605469 14.570312 2.960938 14.277344 2.960938 14.277344 C 2.070312 13.671875 3.023438 13.671875 3.023438 13.671875 C 4.011719 13.738281 4.53125 14.683594 4.53125 14.683594 C 5.402344 16.183594 6.808594 15.757812 7.375 15.5 C 7.457031 14.863281 7.714844 14.421875 7.992188 14.179688 C 5.824219 13.949219 3.542969 13.101562 3.542969 9.320312 C 3.542969 8.246094 3.929688 7.367188 4.546875 6.683594 C 4.449219 6.4375 4.109375 5.425781 4.644531 4.074219 C 4.644531 4.074219 5.46875 3.8125 7.328125 5.085938 C 8.125 4.867188 8.945312 4.757812 9.769531 4.757812 C 10.597656 4.757812 11.4375 4.871094 12.214844 5.085938 C 14.074219 3.8125 14.898438 4.074219 14.898438 4.074219 C 15.433594 5.425781 15.09375 6.4375 14.996094 6.683594 C 15.625 7.367188 16 8.246094 16 9.320312 C 16 13.101562 13.71875 13.933594 11.535156 14.179688 C 11.890625 14.488281 12.195312 15.074219 12.195312 16.003906 C 12.195312 17.324219 12.179688 18.382812 12.179688 18.707031 C 12.179688 18.96875 12.359375 19.28125 12.84375 19.179688 C 16.726562 17.878906 19.527344 14.195312 19.527344 9.84375 C 19.542969 4.398438 15.15625 0 9.769531 0 Z M 9.769531 0 "/>
</g>
</svg>
