<?xml version="1.0" encoding="UTF-8"?>
<svg xmlns="http://www.w3.org/2000/svg" xmlns:xlink="http://www.w3.org/1999/xlink" width="px" height="20px" viewBox="0 0 20 20" version="1.1">
<g id="surface1">
<path style=" stroke:none;fill-rule:nonzero;fill:rgb(78.431373%,66.666667%,43.137255%);fill-opacity:1;" d="M 12.597656 2.058594 L 2.371094 2.800781 C 2.367188 2.800781 2.363281 2.800781 2.363281 2.800781 C 2.355469 2.800781 2.351562 2.804688 2.347656 2.804688 C 2.335938 2.804688 2.328125 2.808594 2.316406 2.808594 C 2.3125 2.808594 2.308594 2.8125 2.304688 2.8125 C 2.300781 2.8125 2.296875 2.8125 2.292969 2.816406 C 2.28125 2.816406 2.273438 2.820312 2.261719 2.824219 C 2.257812 2.828125 2.25 2.828125 2.246094 2.832031 C 2.242188 2.832031 2.238281 2.835938 2.234375 2.835938 C 2.210938 2.847656 2.191406 2.859375 2.171875 2.871094 C 2.171875 2.875 2.167969 2.875 2.164062 2.878906 C 2.15625 2.882812 2.148438 2.890625 2.140625 2.898438 C 2.136719 2.898438 2.136719 2.898438 2.132812 2.902344 C 2.128906 2.90625 2.121094 2.914062 2.113281 2.917969 C 2.109375 2.925781 2.105469 2.929688 2.101562 2.933594 C 2.097656 2.9375 2.089844 2.945312 2.085938 2.953125 C 2.082031 2.957031 2.082031 2.957031 2.078125 2.960938 C 2.074219 2.96875 2.066406 2.976562 2.0625 2.984375 C 2.0625 2.988281 2.058594 2.992188 2.058594 2.992188 C 2.050781 3.003906 2.046875 3.011719 2.042969 3.019531 C 2.042969 3.023438 2.039062 3.027344 2.039062 3.03125 C 2.035156 3.039062 2.03125 3.050781 2.027344 3.058594 C 2.023438 3.058594 2.023438 3.0625 2.023438 3.0625 C 2.015625 3.085938 2.011719 3.109375 2.007812 3.132812 C 2.003906 3.136719 2.003906 3.140625 2.003906 3.144531 C 2.003906 3.15625 2 3.164062 2 3.175781 C 2 3.175781 2 3.175781 2 3.179688 C 2 3.183594 2 3.191406 2 3.199219 L 2 13.496094 C 2 13.90625 2.125 14.308594 2.363281 14.644531 C 2.367188 14.652344 2.375 14.660156 2.382812 14.667969 L 4.851562 17.640625 C 4.875 17.683594 4.90625 17.722656 4.945312 17.753906 L 5.101562 17.941406 C 5.121094 17.964844 5.140625 17.984375 5.167969 18.003906 C 5.402344 18.234375 5.726562 18.367188 6.078125 18.34375 L 16.878906 17.648438 C 17.503906 17.605469 18 17.078125 18 16.449219 L 18 6.054688 C 18 5.683594 17.828125 5.355469 17.5625 5.136719 C 17.542969 5.113281 17.523438 5.09375 17.5 5.078125 L 17.304688 4.933594 C 17.28125 4.910156 17.253906 4.890625 17.226562 4.875 L 13.929688 2.445312 C 13.546875 2.164062 13.074219 2.027344 12.597656 2.058594 Z M 12.65625 2.859375 C 12.941406 2.835938 13.226562 2.917969 13.453125 3.089844 L 15.90625 4.898438 L 5.898438 5.554688 C 5.550781 5.578125 5.214844 5.449219 4.96875 5.203125 L 3.300781 3.535156 Z M 2.800781 4.164062 L 4.800781 6.164062 L 4.800781 16.328125 L 3.015625 14.179688 C 2.875 13.980469 2.800781 13.742188 2.800781 13.496094 Z M 16.773438 5.652344 C 17.011719 5.640625 17.199219 5.816406 17.199219 6.054688 L 17.199219 16.449219 C 17.199219 16.664062 17.039062 16.835938 16.824219 16.847656 L 6.027344 17.546875 C 5.910156 17.554688 5.800781 17.511719 5.726562 17.441406 C 5.726562 17.441406 5.722656 17.441406 5.722656 17.441406 C 5.722656 17.4375 5.722656 17.4375 5.71875 17.433594 C 5.71875 17.433594 5.71875 17.429688 5.714844 17.429688 C 5.644531 17.355469 5.601562 17.261719 5.601562 17.148438 L 5.601562 6.75 C 5.601562 6.535156 5.761719 6.363281 5.972656 6.351562 Z M 15.398438 7.601562 L 13.367188 7.710938 C 13.058594 7.746094 12.699219 7.976562 12.699219 8.351562 L 13.597656 8.425781 L 13.597656 12.703125 L 10.484375 7.902344 L 8.152344 8.03125 C 7.714844 8.0625 7.597656 8.386719 7.597656 8.800781 L 8.496094 8.800781 L 8.496094 15.027344 C 8.496094 15.027344 8.078125 15.140625 7.9375 15.175781 C 7.636719 15.253906 7.597656 15.515625 7.597656 15.703125 C 7.597656 15.703125 9.097656 15.625 9.789062 15.574219 C 10.574219 15.515625 10.597656 14.988281 10.597656 14.988281 L 9.699219 14.800781 L 9.699219 10.1875 C 9.699219 10.1875 11.988281 13.863281 12.6875 14.945312 C 13.015625 15.453125 13.261719 15.550781 13.695312 15.550781 C 14.050781 15.550781 14.386719 15.445312 14.796875 15.222656 L 14.796875 8.277344 C 14.796875 8.277344 14.875 8.273438 15.113281 8.199219 C 15.386719 8.109375 15.398438 7.863281 15.398438 7.601562 Z M 15.398438 7.601562 "/>
</g>
</svg>
