<?xml version="1.0" encoding="UTF-8"?>
<svg xmlns="http://www.w3.org/2000/svg" xmlns:xlink="http://www.w3.org/1999/xlink" width="px" height="20px" viewBox="0 0 36 20" version="1.1">
<g id="surface1">
<path style=" stroke:none;fill-rule:nonzero;fill:rgb(78.431373%,66.666667%,43.137255%);fill-opacity:1;" d="M 32.1875 0 L 3.632812 0 C 1.605469 0 -0.0351562 1.675781 -0.0351562 3.738281 L -0.0351562 16.265625 C -0.0351562 18.332031 1.605469 20.003906 3.632812 20.003906 L 32.1875 20.003906 C 34.214844 20.003906 35.855469 18.332031 35.855469 16.265625 L 35.855469 3.738281 C 35.855469 1.675781 34.214844 0 32.1875 0 Z M 32.1875 0 "/>
<path style=" stroke:none;fill-rule:nonzero;fill:rgb(100%,100%,100%);fill-opacity:1;" d="M 8.464844 13.855469 L 11.816406 6.140625 C 11.914062 5.886719 12.082031 5.667969 12.304688 5.515625 C 12.523438 5.363281 12.785156 5.285156 13.050781 5.285156 L 13.175781 5.285156 C 13.441406 5.285156 13.699219 5.363281 13.917969 5.519531 C 14.136719 5.671875 14.304688 5.886719 14.398438 6.140625 L 17.75 13.855469 C 17.816406 13.992188 17.851562 14.140625 17.859375 14.292969 C 17.863281 14.425781 17.835938 14.558594 17.789062 14.683594 C 17.742188 14.808594 17.667969 14.921875 17.578125 15.015625 C 17.488281 15.113281 17.378906 15.191406 17.257812 15.242188 C 17.136719 15.296875 17.007812 15.324219 16.875 15.328125 L 16.859375 15.328125 C 16.636719 15.328125 16.417969 15.253906 16.234375 15.121094 C 16.054688 14.992188 15.914062 14.804688 15.84375 14.589844 L 15.199219 13.046875 L 10.96875 13.046875 L 10.292969 14.65625 C 10.21875 14.855469 10.082031 15.027344 9.910156 15.148438 C 9.734375 15.269531 9.527344 15.332031 9.320312 15.328125 C 9.191406 15.328125 9.0625 15.304688 8.945312 15.253906 C 8.828125 15.207031 8.71875 15.132812 8.628906 15.039062 C 8.539062 14.949219 8.46875 14.839844 8.417969 14.71875 C 8.371094 14.597656 8.34375 14.46875 8.34375 14.339844 L 8.34375 14.324219 C 8.351562 14.160156 8.390625 14 8.464844 13.855469 Z M 14.410156 11.140625 L 13.078125 7.90625 L 11.75 11.140625 Z M 14.410156 11.140625 "/>
<path style=" stroke:none;fill-rule:nonzero;fill:rgb(100%,100%,100%);fill-opacity:1;" d="M 18.476562 10.371094 L 18.476562 10.351562 C 18.476562 7.566406 20.535156 5.285156 23.488281 5.285156 C 24.929688 5.285156 25.90625 5.675781 26.703125 6.277344 C 26.832031 6.378906 26.933594 6.507812 27.003906 6.65625 C 27.074219 6.804688 27.113281 6.96875 27.113281 7.132812 C 27.113281 7.269531 27.085938 7.40625 27.03125 7.53125 C 26.980469 7.660156 26.902344 7.773438 26.804688 7.871094 C 26.710938 7.96875 26.597656 8.042969 26.472656 8.09375 C 26.347656 8.148438 26.210938 8.171875 26.078125 8.171875 C 25.851562 8.167969 25.628906 8.097656 25.445312 7.960938 C 24.886719 7.507812 24.195312 7.257812 23.480469 7.257812 C 21.867188 7.257812 20.691406 8.628906 20.691406 10.316406 L 20.691406 10.351562 C 20.691406 12.03125 21.832031 13.429688 23.476562 13.429688 C 24.238281 13.445312 24.980469 13.171875 25.554688 12.660156 C 25.75 12.492188 26 12.40625 26.257812 12.421875 C 26.511719 12.441406 26.75 12.558594 26.921875 12.753906 C 27.09375 12.945312 27.183594 13.203125 27.171875 13.460938 C 27.160156 13.722656 27.050781 13.96875 26.867188 14.148438 L 26.820312 14.1875 C 25.953125 14.957031 24.9375 15.417969 23.398438 15.417969 C 22.75 15.429688 22.101562 15.304688 21.496094 15.054688 C 20.894531 14.804688 20.34375 14.433594 19.886719 13.964844 C 19.425781 13.492188 19.0625 12.929688 18.820312 12.3125 C 18.578125 11.695312 18.460938 11.035156 18.476562 10.371094 Z M 18.476562 10.371094 "/>
</g>
</svg>
